# xmcd
#
# Track frame offsets:
#	150
#	113128
#	158798
#	173143
#	224394
#	250889
#	273930
#	287078
#
# Disc length: 4102 seconds
#
# Revision: 1
# Processed by: cddbd v1.5.1PL0 Copyright (c) Steve Scherf et al.
# Submitted via: audiograbber 1.83.01
#
DISCID=70100408
DTITLE=Kreisjugendorchester Blasmusik Kreisverband Ludwigsburg - Nummer 1
DYEAR=1996
DGENRE=Blasmusik
TTITLE0=Daten-CD
TTITLE1=Zingaresca, Heinrich Steinbeck
TTITLE2=Serenade, Derek Burgeois
TTITLE3=Tulsa, Don Gillis
TTITLE4=Silberfäden, P.H. Danks-Nobaire
TTITLE5=Tell-Fantasie, Franz Krüger
TTITLE6=Tico Tico, Zequinha Abreu
TTITLE7=Sambre et Meuse, Joseph F. Rauski
EXTD=
EXTT0=
EXTT1=
EXTT2=
EXTT3=
EXTT4=
EXTT5=
EXTT6=
EXTT7=
PLAYORDER=
